<?xml version="1.0" standalone="no"?><!DOCTYPE svg PUBLIC "-//W3C//DTD SVG 1.1//EN" "http://www.w3.org/Graphics/SVG/1.1/DTD/svg11.dtd"><svg t="1525625630106" class="icon" style="" viewBox="0 0 1024 1024" version="1.1" xmlns="http://www.w3.org/2000/svg" p-id="11049" xmlns:xlink="http://www.w3.org/1999/xlink" width="30" height="30"><defs><style type="text/css"></style></defs><path d="M768 128 256 128c-35.346 0-64 28.654-64 64l0 640c0 35.347 28.654 64 64 64l512 0c35.347 0 64-28.653 64-64L832 192C832 156.654 803.347 128 768 128zM768 800c0 17.673-14.327 32-32 32L288 832c-17.674 0-32-14.327-32-32L256 224c0-17.673 14.326-32 32-32l448 0c17.673 0 32 14.327 32 32L768 800z" p-id="11050" fill="#FEFEFE"></path><path d="M672 352c0 17.673-14.327 32-32 32L384 384c-17.673 0-32-14.327-32-32l0 0c0-17.673 14.327-32 32-32l256 0C657.673 320 672 334.327 672 352L672 352z" p-id="11051" fill="#FEFEFE"></path><path d="M672 512c0 17.674-14.327 32-32 32L384 544c-17.673 0-32-14.326-32-32l0 0c0-17.673 14.327-32 32-32l256 0C657.673 480 672 494.327 672 512L672 512z" p-id="11052" fill="#FEFEFE"></path><path d="M672 672c0 17.674-14.327 32-32 32L384 704c-17.673 0-32-14.326-32-32l0 0c0-17.674 14.327-32 32-32l256 0C657.673 640 672 654.326 672 672L672 672z" p-id="11053" fill="#FEFEFE"></path></svg>